<svg xmlns="http://www.w3.org/2000/svg" width="256" height="256" viewBox="0 0 100 100"><rect width="100" height="100" rx="20" fill="#70b1fc"></rect><path fill="#fff" d="M47.30 78.98L47.30 78.98Q47.30 84.29 36.95 84.29L36.95 84.29Q34.70 84.29 34.30 82.00Q33.89 79.70 33.89 76.28Q33.89 72.86 34.39 68.94Q34.88 65.03 35.69 60.44L35.69 60.44Q37.22 51.62 40.06 41.41Q42.89 31.19 45.68 25.61L45.68 25.61Q40.01 25.97 34.43 27.63Q28.85 29.30 26.51 29.98Q24.17 30.65 22.64 30.65Q21.11 30.65 21.11 29.66L21.11 29.66Q21.11 28.49 22.91 26.20Q24.71 23.90 28.04 21.56L28.04 21.56Q36.50 15.80 46.85 15.71L46.85 15.71L76.46 15.98Q78.89 15.98 78.89 17.87L78.89 17.87Q78.89 18.41 78.17 19.80Q77.45 21.20 76.91 22.82L76.91 22.82Q75.74 26.06 72.00 26.06Q68.27 26.06 54.23 25.52L54.23 25.52Q53.87 29.48 52.79 35.64Q51.71 41.81 50.45 49.10L50.45 49.10Q47.39 67.73 47.30 78.98Z"></path></svg>